<svg xmlns="http://www.w3.org/2000/svg" version="1.1" xmlnsXlink="http://www.w3.org/1999/xlink" xmlnsSvgjs="http://svgjs.dev/svgjs" width="1000" height="1000" viewBox="0 0 1000 1000"><rect width="1000" height="1000" fill="#ffffff"></rect><g transform="matrix(0.7,0,0,0.7,149.5757575757575,384.29285316949483)"><svg viewBox="0 0 396 131" data-background-color="#ffffff" preserveAspectRatio="xMidYMid meet" height="330" width="1000" xmlns="http://www.w3.org/2000/svg" xmlnsXlink="http://www.w3.org/1999/xlink"><g id="tight-bounds" transform="matrix(1,0,0,1,0.24000000000003752,0.11747287790552718)"><svg viewBox="0 0 395.5199999999999 130.7650533042718" height="130.7650533042718" width="395.5199999999999"><g><svg viewBox="0 0 397.4975999999999 131.41887857079314" height="130.7650533042718" width="395.5199999999999"><g><rect width="397.4975999999999" height="4.025186677251125" x="0" y="72.22203842133666" fill="#233565" opacity="1" stroke-width="0" stroke="transparent" fill-opacity="1" class="rect-o-0" data-fill-palette-color="secondary" rx="1%" id="o-0" data-palette-color="#233565"></rect></g><g transform="matrix(1,0,0,1,0.9887999999999693,86.78436299715095)"><svg viewBox="0 0 395.52 44.63451557364219" height="44.63451557364219" width="395.52"><g id="textblocktransform"><svg viewBox="0 0 395.52 44.63451557364219" height="44.63451557364219" width="395.52" id="textblock"><g><svg viewBox="0 0 395.52 44.63451557364219" height="44.63451557364219" width="395.52"><g transform="matrix(1,0,0,1,0,0)"><svg width="395.52" viewBox="4.449999809265137 -35.75 319.42999267578125 36.04999923706055" height="44.63451557364219" data-palette-color="#233565"><path d="M7.95 0L4.45 0 4.45-35.5 19.45-35.5Q21.75-35.5 23.65-34.55 25.55-33.6 26.98-31.98 28.4-30.35 29.18-28.38 29.95-26.4 29.95-24.35L29.95-24.35Q29.95-21.8 28.98-19.55 28-17.3 26.23-15.75 24.45-14.2 22.05-13.7L22.05-13.7 30.75 0 26.8 0 18.45-13.1 7.95-13.1 7.95 0ZM7.95-32.4L7.95-16.2 19.55-16.2Q21.65-16.2 23.2-17.35 24.75-18.5 25.6-20.38 26.45-22.25 26.45-24.35L26.45-24.35Q26.45-26.5 25.48-28.33 24.5-30.15 22.88-31.28 21.25-32.4 19.25-32.4L19.25-32.4 7.95-32.4ZM40.6-3.1L60.95-3.1 60.95 0 37.1 0 37.1-35.5 60.5-35.5 60.5-32.4 40.6-32.4 40.6-19.6 57.95-19.6 57.95-16.65 40.6-16.65 40.6-3.1ZM64.5-18L64.5-18Q64.5-21.25 65.62-24.38 66.75-27.5 68.9-30.08 71.05-32.65 74.2-34.18 77.34-35.7 81.34-35.7L81.34-35.7Q86.09-35.7 89.47-33.52 92.84-31.35 94.45-27.95L94.45-27.95 91.7-26.25Q90.55-28.6 88.8-29.98 87.05-31.35 85.07-31.95 83.09-32.55 81.15-32.55L81.15-32.55Q77.95-32.55 75.5-31.28 73.05-30 71.37-27.88 69.7-25.75 68.84-23.13 68-20.5 68-17.8L68-17.8Q68-14.85 69-12.15 70-9.45 71.8-7.38 73.59-5.3 76.02-4.08 78.45-2.85 81.3-2.85L81.3-2.85Q83.3-2.85 85.4-3.55 87.5-4.25 89.32-5.7 91.15-7.15 92.25-9.45L92.25-9.45 95.15-7.95Q94.05-5.3 91.75-3.45 89.45-1.6 86.62-0.65 83.8 0.3 81.09 0.3L81.09 0.3Q77.45 0.3 74.4-1.28 71.34-2.85 69.12-5.48 66.9-8.1 65.7-11.38 64.5-14.65 64.5-18ZM104.64 0L101.14 0 101.14-35.5 104.64-35.5 104.64 0ZM117.04 0L113.54 0 113.54-35.5 128.24-35.5Q130.54-35.5 132.47-34.55 134.39-33.6 135.79-31.98 137.19-30.35 137.99-28.38 138.79-26.4 138.79-24.35L138.79-24.35Q138.79-21.45 137.52-18.88 136.24-16.3 133.94-14.7 131.64-13.1 128.54-13.1L128.54-13.1 117.04-13.1 117.04 0ZM117.04-32.4L117.04-16.2 128.39-16.2Q130.49-16.2 132.04-17.35 133.59-18.5 134.44-20.35 135.29-22.2 135.29-24.35L135.29-24.35Q135.29-26.55 134.29-28.4 133.29-30.25 131.67-31.33 130.04-32.4 128.09-32.4L128.09-32.4 117.04-32.4ZM148.14-3.1L168.49-3.1 168.49 0 144.64 0 144.64-35.5 168.04-35.5 168.04-32.4 148.14-32.4 148.14-19.6 165.49-19.6 165.49-16.65 148.14-16.65 148.14-3.1ZM214.53-9.15L214.53-9.15Q214.53-6.5 213.18-4.42 211.83-2.35 209.56-1.18 207.28 0 204.58 0L204.58 0 187.83 0 187.83-35.5 204.93-35.5Q207.43-35.5 209.26-34.18 211.08-32.85 212.06-30.78 213.03-28.7 213.03-26.45L213.03-26.45Q213.03-23.8 211.68-21.55 210.33-19.3 207.93-18.2L207.93-18.2Q210.98-17.3 212.76-14.85 214.53-12.4 214.53-9.15ZM211.03-9.75L211.03-9.75Q211.03-11.55 210.23-13.08 209.43-14.6 208.06-15.55 206.68-16.5 204.93-16.5L204.93-16.5 191.33-16.5 191.33-3.05 204.58-3.05Q206.38-3.05 207.83-4 209.28-4.95 210.16-6.48 211.03-8 211.03-9.75ZM203.83-32.45L191.33-32.45 191.33-19.35 203.53-19.35Q205.28-19.35 206.63-20.28 207.98-21.2 208.78-22.7 209.58-24.2 209.58-25.9L209.58-25.9Q209.58-27.7 208.83-29.18 208.08-30.65 206.78-31.55 205.48-32.45 203.83-32.45L203.83-32.45ZM235.43 0.25L235.43 0.25Q231.68 0.25 228.63-1.25 225.58-2.75 223.38-5.33 221.18-7.9 219.98-11.13 218.78-14.35 218.78-17.75L218.78-17.75Q218.78-21.3 220.03-24.53 221.28-27.75 223.56-30.28 225.83-32.8 228.88-34.27 231.93-35.75 235.48-35.75L235.48-35.75Q239.23-35.75 242.28-34.2 245.33-32.65 247.51-30.05 249.68-27.45 250.88-24.25 252.08-21.05 252.08-17.7L252.08-17.7Q252.08-14.15 250.83-10.93 249.58-7.7 247.33-5.18 245.08-2.65 242.03-1.2 238.98 0.25 235.43 0.25ZM222.28-17.75L222.28-17.75Q222.28-14.85 223.23-12.18 224.18-9.5 225.93-7.43 227.68-5.35 230.11-4.13 232.53-2.9 235.43-2.9L235.43-2.9Q238.48-2.9 240.91-4.17 243.33-5.45 245.06-7.58 246.78-9.7 247.68-12.35 248.58-15 248.58-17.75L248.58-17.75Q248.58-20.65 247.63-23.3 246.68-25.95 244.91-28.05 243.13-30.15 240.73-31.35 238.33-32.55 235.43-32.55L235.43-32.55Q232.43-32.55 230.01-31.3 227.58-30.05 225.86-27.93 224.13-25.8 223.21-23.15 222.28-20.5 222.28-17.75ZM272.98 0.25L272.98 0.25Q269.23 0.25 266.18-1.25 263.13-2.75 260.93-5.33 258.73-7.9 257.53-11.13 256.33-14.35 256.33-17.75L256.33-17.75Q256.33-21.3 257.58-24.53 258.83-27.75 261.1-30.28 263.38-32.8 266.43-34.27 269.48-35.75 273.03-35.75L273.03-35.75Q276.78-35.75 279.83-34.2 282.88-32.65 285.05-30.05 287.23-27.45 288.43-24.25 289.63-21.05 289.63-17.7L289.63-17.7Q289.63-14.15 288.38-10.93 287.13-7.7 284.88-5.18 282.63-2.65 279.58-1.2 276.53 0.25 272.98 0.25ZM259.83-17.75L259.83-17.75Q259.83-14.85 260.78-12.18 261.73-9.5 263.48-7.43 265.23-5.35 267.65-4.13 270.08-2.9 272.98-2.9L272.98-2.9Q276.03-2.9 278.45-4.17 280.88-5.45 282.6-7.58 284.33-9.7 285.23-12.35 286.13-15 286.13-17.75L286.13-17.75Q286.13-20.65 285.18-23.3 284.23-25.95 282.45-28.05 280.68-30.15 278.28-31.35 275.88-32.55 272.98-32.55L272.98-32.55Q269.98-32.55 267.55-31.3 265.13-30.05 263.4-27.93 261.68-25.8 260.75-23.15 259.83-20.5 259.83-17.75ZM299.73 0L296.23 0 296.23-35.45 299.73-35.45 299.73-14.85 319.28-35.5 323.13-35.5 308.63-19.9 323.88 0 319.93 0 306.38-17.8 299.73-10.9 299.73 0Z" opacity="1" transform="matrix(1,0,0,1,0,0)" fill="#233565" class="wordmark-text-0" data-fill-palette-color="primary" id="text-0"></path></svg></g></svg></g></svg></g></svg></g><g transform="matrix(1,0,0,1,159.9062526732539,0)"><svg viewBox="0 0 77.68509465349209 61.68490052277351" height="61.68490052277351" width="77.68509465349209"><g><svg xmlns="http://www.w3.org/2000/svg" xmlnsXlink="http://www.w3.org/1999/xlink" version="1.0" x="8" y="0" viewBox="10 10.000249862670898 80 79.99974822998047" enable-background="new 0 0 100 100" xmlSpace="preserve" height="61.68490052277351" width="61.68509465349209" class="icon-icon-0" data-fill-palette-color="accent" id="icon-0"><path d="M17.272 33.77C12.702 36.478 10 39.772 10 43.333c0 8.246 14.382 15.072 33.249 16.413L17.272 33.77z" fill="#3a9691" data-fill-palette-color="accent"></path><path d="M50 26.667c-2.249 0-4.439 0.098-6.588 0.244L73.347 56.85C83.418 53.821 90 48.903 90 43.333 90 34.128 72.09 26.667 50 26.667z" fill="#3a9691" data-fill-palette-color="accent"></path><path d="M52.871 59.938c4.531-0.134 8.867-0.566 12.858-1.279L18.535 11.465c-1.953-1.953-5.12-1.953-7.07 0-1.953 1.95-1.953 5.117 0 7.07L52.871 59.938z" fill="#3a9691" data-fill-palette-color="accent"></path><path d="M12.236 57.602c2.275 7.181 6.156 13.675 11.098 19.078L23.33 86.995C31.313 88.945 40.258 90 50 90c9.739 0 18.685-1.055 26.663-3.001l0.004-10.319c5.152-5.628 8.867-12.161 11.055-19.053-8.939 5.967-23.379 9.04-37.722 9.04C35.635 66.667 21.172 63.584 12.236 57.602z" fill="#3a9691" data-fill-palette-color="accent"></path></svg></g></svg></g><g><rect width="83.37313267325393" height="4.025186677251125" y="56.65971384552238" x="237.591347326746" fill="#233565" data-fill-palette-color="secondary"></rect><rect width="83.37313267325393" height="4.025186677251125" y="56.65971384552238" x="76.53311999999998" fill="#233565" data-fill-palette-color="secondary"></rect></g></svg></g><defs></defs></svg><rect width="395.5199999999999" height="130.7650533042718" fill="none" stroke="none" visibility="hidden"></rect></g></svg></g></svg>